<svg width="100" height="100" viewBox="0 0 100 100" xmlns="http://www.w3.org/2000/svg">
  <defs>
    <linearGradient id="bgGochujang" x1="0%" y1="0%" x2="100%" y2="100%">
      <stop offset="0%" style="stop-color:#C1121F"/>
      <stop offset="100%" style="stop-color:#780000"/>
    </linearGradient>
  </defs>
  
  <!-- Background with warm red gradient -->
  <rect width="100" height="100" fill="url(#bgGochujang)"/>
  
  <!-- Letter G - Clean version centered -->
  <g transform="translate(18, 15)">
    <path d="M32 0C14.3 0 0 14.3 0 32C0 49.7 14.3 64 32 64C38.5 64 44.5 62.2 49.5 59V36H28V46H39.5V51.5C37.2 52.5 34.7 53 32 53C18.7 53 10 43.5 10 32C10 18.7 20.5 10 32 10C41.5 10 49.5 15.5 53 23.5L62 17.5C56 6.8 45 0 32 0Z" 
          fill="#FDF0D5"/>
  </g>
</svg>