<svg width="100" height="100" viewBox="0 0 100 100" xmlns="http://www.w3.org/2000/svg">
  <!-- Solid background color -->
  <rect width="100" height="100" rx="22" fill="#D8DFE9"/>
  
  <!-- Clean G letter without search -->
  <g transform="translate(25, 20)">
    <path d="M32 0C14.3 0 0 14.3 0 32C0 49.7 14.3 60 32 60C38 60 43.5 58.5 48 55.8V35H30V45H38V49C36.2 49.8 34.2 50 32 50C20 50 10 42 10 32C10 20 20 10 32 10C40 10 47 14.5 50 21L58 16C53 6.5 43.5 0 32 0Z" 
          fill="#212121"/>
  </g>
</svg>